<svg width="48" height="48" viewBox="0 0 48 48" fill="none" xmlns="http://www.w3.org/2000/svg">
<rect width="48" height="48" rx="5" fill="#C70039" fill-opacity="0.99"/>
<path d="M29 30C27.89 30 27 30.89 27 32C27 32.5304 27.2107 33.0391 27.5858 33.4142C27.9609 33.7893 28.4696 34 29 34C29.5304 34 30.0391 33.7893 30.4142 33.4142C30.7893 33.0391 31 32.5304 31 32C31 31.4696 30.7893 30.9609 30.4142 30.5858C30.0391 30.2107 29.5304 30 29 30ZM13 14V16H15L18.6 23.59L17.24 26.04C17.09 26.32 17 26.65 17 27C17 27.5304 17.2107 28.0391 17.5858 28.4142C17.9609 28.7893 18.4696 29 19 29H31V27H19.42C19.3537 27 19.2901 26.9737 19.2432 26.9268C19.1963 26.8799 19.17 26.8163 19.17 26.75C19.17 26.7 19.18 26.66 19.2 26.63L20.1 25H27.55C28.3 25 28.96 24.58 29.3 23.97L32.88 17.5C32.95 17.34 33 17.17 33 17C33 16.7348 32.8946 16.4804 32.7071 16.2929C32.5196 16.1054 32.2652 16 32 16H17.21L16.27 14M19 30C17.89 30 17 30.89 17 32C17 32.5304 17.2107 33.0391 17.5858 33.4142C17.9609 33.7893 18.4696 34 19 34C19.5304 34 20.0391 33.7893 20.4142 33.4142C20.7893 33.0391 21 32.5304 21 32C21 31.4696 20.7893 30.9609 20.4142 30.5858C20.0391 30.2107 19.5304 30 19 30Z" fill="white"/>
</svg>
